<?xml version="1.0" standalone="no"?>
<!DOCTYPE svg PUBLIC "-//W3C//DTD SVG 20010904//EN"
 "http://www.w3.org/TR/2001/REC-SVG-20010904/DTD/svg10.dtd">
<svg version="1.0" xmlns="http://www.w3.org/2000/svg"
 width="512.000000pt" height="512.000000pt" viewBox="0 0 512.000000 512.000000"
 preserveAspectRatio="xMidYMid meet">
<metadata>
Created by potrace 1.14, written by Peter Selinger 2001-2017
</metadata>
<g transform="translate(0.000000,512.000000) scale(0.100000,-0.100000)"
fill="#000000" stroke="none">
<path d="M2259 5106 c-2 -2 -38 -7 -79 -11 -41 -4 -88 -9 -105 -11 -16 -3 -46
-7 -65 -10 -19 -2 -45 -7 -57 -9 -13 -3 -35 -7 -50 -11 -176 -35 -328 -125
-378 -223 -35 -69 -25 -161 23 -207 89 -84 179 -77 286 21 21 20 43 34 49 32
5 -1 19 -33 31 -69 12 -37 25 -70 29 -74 4 -4 7 -15 7 -25 0 -32 47 -126 71
-143 50 -35 122 -9 138 49 9 33 -13 129 -55 240 -17 45 -16 75 3 76 10 1 27 3
38 4 88 10 241 16 429 16 299 -1 454 -12 467 -32 3 -5 -12 -60 -33 -122 -51
-153 -49 -204 9 -235 32 -18 67 -15 95 8 26 20 42 55 99 218 18 50 37 92 41
92 5 0 28 -18 52 -40 103 -95 206 -99 282 -11 43 50 53 124 25 194 -18 47
-111 130 -183 165 -69 33 -218 76 -298 86 -25 4 -58 9 -73 11 -16 3 -54 8 -85
11 -72 6 -707 15 -713 10z"/>
<path d="M2457 4144 c-2 -1 -97 -11 -187 -19 -19 -2 -35 -4 -35 -5 0 -1 -13
-4 -30 -6 -57 -9 -200 -45 -265 -67 -36 -11 -67 -22 -70 -22 -3 -1 -18 -7 -35
-14 -16 -6 -43 -17 -60 -23 -77 -30 -319 -169 -345 -198 -3 -3 -20 -16 -38
-29 -63 -44 -181 -159 -234 -226 -12 -16 -31 -39 -40 -49 -10 -11 -24 -32 -30
-48 -7 -15 -16 -28 -19 -28 -4 0 -13 -15 -20 -32 -6 -18 -13 -35 -14 -38 -1
-3 -9 -22 -18 -42 -9 -20 -20 -59 -23 -85 -4 -26 -7 -513 -8 -1082 l-1 -1034
27 -80 c15 -44 42 -104 59 -133 41 -68 129 -158 190 -196 27 -16 46 -34 43
-41 -3 -7 -33 -34 -66 -62 -34 -27 -75 -62 -92 -76 -226 -196 -241 -212 -252
-277 -16 -99 52 -204 141 -218 77 -11 129 0 177 37 24 18 45 36 48 39 3 3 28
23 55 45 28 21 61 49 75 62 14 12 59 50 100 84 149 122 164 135 209 174 25 22
70 62 99 89 l52 49 693 -1 c380 0 703 -1 717 -1 16 -1 44 -19 76 -49 28 -26
72 -65 99 -87 27 -22 53 -45 59 -50 6 -6 36 -30 66 -55 30 -25 60 -49 66 -55
6 -5 32 -28 59 -50 26 -22 53 -45 59 -50 31 -29 204 -164 223 -174 12 -6 49
-11 83 -11 48 0 69 5 93 22 73 52 105 122 93 199 -9 59 -41 100 -150 192 -12
10 -32 28 -46 40 -14 12 -50 42 -80 67 -95 76 -138 118 -131 127 3 4 24 20 46
34 40 26 165 147 165 160 0 4 6 14 13 21 15 16 51 95 75 168 17 52 18 108 16
1105 -2 578 -5 1064 -7 1080 -2 17 -15 55 -28 85 -92 217 -285 417 -555 576
-89 52 -257 132 -293 139 -9 2 -17 4 -18 5 -2 2 -6 3 -10 4 -5 1 -12 4 -18 7
-5 3 -32 12 -60 18 -27 7 -57 15 -65 18 -20 8 -39 12 -70 16 -14 2 -30 6 -35
9 -6 3 -35 9 -65 13 -30 4 -64 9 -75 11 -55 10 -379 26 -388 18z m353 -204
c134 -19 267 -76 320 -137 23 -25 28 -39 24 -66 -6 -53 -30 -102 -64 -131 -61
-50 -93 -54 -519 -54 -216 0 -411 5 -434 10 -116 26 -198 156 -145 231 39 55
160 114 284 140 81 17 434 21 534 7z m220 -594 c194 -7 242 -11 380 -32 31 -5
135 -27 181 -38 35 -9 95 -38 126 -62 l34 -26 -2 -421 c-1 -256 -5 -432 -12
-451 -13 -42 -53 -94 -88 -115 -23 -14 -60 -18 -221 -21 -309 -5 -1776 -2
-1861 4 -86 6 -110 21 -155 91 l-26 40 -4 432 -4 432 39 25 c21 14 57 32 80
40 53 19 211 53 283 61 30 4 66 8 80 10 14 2 59 7 100 10 41 4 86 9 100 11 14
2 99 6 190 10 91 4 166 7 167 8 4 3 460 -3 613 -8z m-1025 -1776 c142 -65 226
-249 173 -377 -6 -16 -12 -30 -13 -33 -13 -52 -94 -132 -171 -167 -52 -23
-137 -32 -192 -19 -139 32 -250 179 -243 321 0 17 1 38 2 48 1 38 52 126 97
169 54 51 103 76 164 84 24 4 44 7 46 9 6 6 100 -18 137 -35z m1293 26 c89 -7
199 -82 238 -165 20 -42 42 -129 38 -153 -1 -9 -5 -35 -8 -57 -22 -162 -207
-284 -372 -246 -135 31 -227 128 -252 266 -20 109 55 263 154 316 37 20 137
51 146 46 4 -2 29 -5 56 -7z"/>
</g>
</svg>
